<?xml version="1.0" encoding="utf-8"?>
<!-- Generator: Adobe Illustrator 23.0.5, SVG Export Plug-In . SVG Version: 6.00 Build 0)  -->
<svg version="1.1" id="Layer_1" xmlns="http://www.w3.org/2000/svg" xmlns:xlink="http://www.w3.org/1999/xlink" x="0px" y="0px"
	 viewBox="0 0 512 512" style="enable-background:new 0 0 512 512;" xml:space="preserve">
<style type="text/css">
	.st0{fill:#AA0601;}
</style>
<g>
	<g>
		<path class="st0" d="M511.2,197.1c-2-6.1-7.2-10.5-13.6-11.4l-156.5-22.8l-70-141.9c-2.8-5.7-8.7-9.4-15.1-9.4
			c-6.4,0-12.2,3.6-15.1,9.4l-70,141.9L14.4,185.7c-6.3,0.9-11.6,5.4-13.6,11.4c-2,6.1-0.3,12.8,4.3,17.2l113.3,110.4L91.6,480.7
			c-1.1,6.3,1.5,12.7,6.7,16.4c5.2,3.8,12,4.3,17.7,1.3l140-73.6l140,73.6c5.7,3,12.5,2.5,17.7-1.3c5.2-3.8,7.8-10.1,6.7-16.4
			l-26.7-155.9l113.3-110.4C511.5,209.9,513.2,203.2,511.2,197.1z M363.9,306.9c-4,3.9-5.8,9.4-4.8,14.9l22.5,131.1l-117.7-61.9
			c-4.9-2.6-10.7-2.6-15.6,0l-117.7,61.9l22.5-131.1c0.9-5.4-0.9-11-4.8-14.9L52.9,214l131.6-19.1c5.5-0.8,10.2-4.2,12.6-9.2
			L256,66.4l58.9,119.3c2.4,5,7.2,8.4,12.6,9.2L459.1,214L363.9,306.9z"/>
	</g>
</g>
</svg>
